<?xml version="1.0" encoding="UTF-8" standalone="no"?>
<svg
   width="190"
   height="160"
   viewBox="0 0 190 160"
   fill="none"
   version="1.1"
   id="svg233"
   sodipodi:docname="file-1763648497222-260993132.svg"
   xmlns:inkscape="http://www.inkscape.org/namespaces/inkscape"
   xmlns:sodipodi="http://sodipodi.sourceforge.net/DTD/sodipodi-0.dtd"
   xmlns="http://www.w3.org/2000/svg"
   xmlns:svg="http://www.w3.org/2000/svg">
  <sodipodi:namedview
     id="namedview235"
     pagecolor="#ffffff"
     bordercolor="#666666"
     borderopacity="1.0"
     inkscape:pageshadow="2"
     inkscape:pageopacity="0.0"
     inkscape:pagecheckerboard="0" />
  <g
     filter="url(#filter0_f_26_1437)"
     id="g6">
    <ellipse
       cx="53.724"
       cy="58.9657"
       rx="34.6305"
       ry="29.7635"
       fill="black"
       fill-opacity="0.25"
       id="ellipse2" />
    <path
       d="M53.7244 30.6992C72.2439 30.6994 86.8572 43.5598 86.8572 58.9658C86.8571 74.3718 72.2439 87.2313 53.7244 87.2314C35.2047 87.2314 20.5907 74.3719 20.5906 58.9658C20.5906 43.5597 35.2047 30.6992 53.7244 30.6992Z"
       stroke="black"
       stroke-opacity="0.25"
       stroke-width="2.99507"
       id="path4" />
  </g>
  <g
     filter="url(#filter1_f_26_1437)"
     id="g12">
    <ellipse
       cx="147.695"
       cy="58.9657"
       rx="34.6305"
       ry="29.7635"
       fill="black"
       fill-opacity="0.25"
       id="ellipse8" />
    <path
       d="M147.695 30.6992C166.214 30.6994 180.828 43.5598 180.828 58.9658C180.828 74.3718 166.214 87.2313 147.695 87.2314C129.175 87.2314 114.561 74.3719 114.561 58.9658C114.561 43.5597 129.175 30.6992 147.695 30.6992Z"
       stroke="black"
       stroke-opacity="0.25"
       stroke-width="2.99507"
       id="path10" />
  </g>
  <g
     filter="url(#filter2_f_26_1437)"
     id="g18">
    <path
       d="M147.882 93.2219C147.882 119.068 126.846 140.02 100.896 140.02C74.9473 140.02 53.9113 119.068 53.9113 93.2219C53.9113 67.376 74.9473 46.4238 100.896 46.4238C126.846 46.4238 147.882 67.376 147.882 93.2219Z"
       fill="black"
       fill-opacity="0.25"
       id="path14" />
    <path
       d="M100.897 47.9209C126.024 47.921 146.384 68.2087 146.384 93.2217C146.384 118.235 126.024 138.522 100.897 138.522C75.7688 138.522 55.4083 118.235 55.4083 93.2217C55.4084 68.2086 75.7689 47.9209 100.897 47.9209Z"
       stroke="black"
       stroke-opacity="0.25"
       stroke-width="2.99507"
       id="path16" />
  </g>
  <g
     filter="url(#filter3_f_26_1437)"
     id="g24">
    <ellipse
       cx="101.084"
       cy="46.4238"
       rx="28.4532"
       ry="24.335"
       fill="black"
       fill-opacity="0.25"
       id="ellipse20" />
    <path
       d="M101.084 23.5859C116.199 23.5859 128.04 34.0221 128.04 46.4238C128.04 58.8255 116.199 69.2617 101.084 69.2617C85.9683 69.2617 74.1276 58.8255 74.1276 46.4238C74.1276 34.0222 85.9683 23.586 101.084 23.5859Z"
       stroke="black"
       stroke-opacity="0.25"
       stroke-width="2.99507"
       id="path22" />
  </g>
  <g
     filter="url(#filter4_f_26_1437)"
     id="g28">
    <path
       d="M146.37 87.0015C145.765 98.134 125.721 107.074 101.084 107.074C76.0649 107.074 55.7832 97.8551 55.7832 86.4829"
       stroke="black"
       stroke-opacity="0.25"
       stroke-width="2.99507"
       id="path26" />
  </g>
  <g
     filter="url(#filter5_f_26_1437)"
     id="g32">
    <path
       d="M141.892 73.3481C141.349 83.3321 123.373 91.3498 101.277 91.3498C78.8395 91.3498 60.463 82.8296 60.463 72.6306"
       stroke="black"
       stroke-opacity="0.25"
       stroke-width="2.68608"
       id="path30" />
  </g>
  <g
     filter="url(#filter6_f_26_1437)"
     id="g36">
    <path
       d="M145.448 102.581C143.202 112.906 125.137 121.797 100.903 121.797C76.2944 121.797 57.0936 112.09 56.1576 101.581"
       stroke="black"
       stroke-opacity="0.25"
       stroke-width="2.94603"
       id="path34" />
  </g>
  <g
     filter="url(#filter7_f_26_1437)"
     id="g40">
    <path
       d="M101.065 152.375L107.534 138.864H94.5967L101.065 152.375Z"
       fill="black"
       fill-opacity="0.25"
       id="path38" />
  </g>
  <g
     filter="url(#filter8_f_26_1437)"
     id="g44">
    <circle
       cx="94.7192"
       cy="43.8031"
       r="2.62069"
       fill="black"
       fill-opacity="0.25"
       id="circle42" />
  </g>
  <g
     filter="url(#filter9_f_26_1437)"
     id="g48">
    <path
       d="M110.069 43.8031C110.069 45.2504 108.896 46.4238 107.448 46.4238C106.001 46.4238 104.828 45.2504 104.828 43.8031C104.828 42.3557 106.001 41.1824 107.448 41.1824C108.896 41.1824 110.069 42.3557 110.069 43.8031Z"
       fill="black"
       fill-opacity="0.25"
       id="path46" />
  </g>
  <g
     filter="url(#filter10_f_26_1437)"
     id="g52">
    <ellipse
       cx="88.1675"
       cy="51.6651"
       rx="3.93103"
       ry="2.62069"
       fill="black"
       fill-opacity="0.25"
       id="ellipse50" />
  </g>
  <g
     filter="url(#filter11_f_26_1437)"
     id="g56">
    <ellipse
       cx="114"
       cy="51.6651"
       rx="3.93103"
       ry="2.62069"
       fill="black"
       fill-opacity="0.25"
       id="ellipse54" />
  </g>
  <g
     filter="url(#filter12_f_26_1437)"
     id="g60">
    <circle
       cx="87.4187"
       cy="9.92128"
       r="3.18227"
       fill="black"
       fill-opacity="0.25"
       id="circle58" />
  </g>
  <g
     filter="url(#filter13_f_26_1437)"
     id="g64">
    <circle
       cx="115.497"
       cy="9.92128"
       r="3.18227"
       fill="black"
       fill-opacity="0.25"
       id="circle62" />
  </g>
  <g
     filter="url(#filter14_f_26_1437)"
     id="g68">
    <line
       x1="88.6125"
       y1="12.1501"
       x2="93.4795"
       y2="23.756"
       stroke="black"
       stroke-opacity="0.25"
       stroke-width="2.99507"
       id="line66" />
  </g>
  <g
     filter="url(#filter15_f_26_1437)"
     id="g72">
    <line
       x1="114.412"
       y1="12.2582"
       x2="108.796"
       y2="23.8641"
       stroke="black"
       stroke-opacity="0.25"
       stroke-width="2.99507"
       id="line70" />
  </g>
  <g
     filter="url(#filter16_f_26_1437)"
     id="g76">
    <path
       d="M97.3398 49.4189C97.3398 51.8524 99.0293 53.9116 101.084 53.9116C103.048 53.9116 104.64 51.8524 104.64 49.4189"
       stroke="black"
       stroke-opacity="0.25"
       stroke-width="1.87192"
       id="path74" />
  </g>
  <path
     d="M34.631 24.3347C53.1505 24.3349 67.7638 37.1953 67.7638 52.6013C67.7637 68.0073 53.1505 80.8668 34.631 80.8669C16.1113 80.8669 1.49727 68.0074 1.49719 52.6013C1.49719 37.1952 16.1113 24.3347 34.631 24.3347Z"
     fill="#CBF3FF"
     stroke="#44C2C1"
     stroke-width="2.99507"
     id="path78" />
  <path
     d="M128.601 24.3347C147.121 24.3349 161.734 37.1953 161.734 52.6013C161.734 68.0073 147.121 80.8668 128.601 80.8669C110.082 80.8669 95.4676 68.0074 95.4675 52.6013C95.4675 37.1952 110.082 24.3347 128.601 24.3347Z"
     fill="#CBF3FF"
     stroke="#44C2C1"
     stroke-width="2.99507"
     id="path80" />
  <path
     d="M81.8031 41.5564C106.931 41.5565 127.29 61.8442 127.29 86.8572C127.29 111.87 106.931 132.158 81.8031 132.158C56.6753 132.158 36.3148 111.87 36.3148 86.8572C36.3149 61.8441 56.6754 41.5564 81.8031 41.5564Z"
     fill="#FDB934"
     stroke="#6B1515"
     stroke-width="2.99507"
     id="path82" />
  <path
     d="M81.9901 17.2214C97.1055 17.2214 108.946 27.6576 108.946 40.0593C108.946 52.461 97.1055 62.8972 81.9901 62.8972C66.8748 62.8972 55.0341 52.461 55.0341 40.0593C55.0341 27.6577 66.8748 17.2215 81.9901 17.2214Z"
     fill="#FFD687"
     stroke="#FDB934"
     stroke-width="2.99507"
     id="path84" />
  <path
     d="M127.277 80.637C126.671 91.7695 106.628 100.71 81.9902 100.71C56.9714 100.71 36.6897 91.4906 36.6897 80.1184"
     stroke="#6B1515"
     stroke-width="2.99507"
     id="path86" />
  <path
     d="M122.798 66.9836C122.255 76.9676 104.279 84.9853 82.1837 84.9853C59.746 84.9853 41.3695 76.4651 41.3695 66.2661"
     stroke="#6B1515"
     stroke-width="2.68608"
     id="path88" />
  <path
     d="M126.355 96.2169C124.108 106.542 106.044 115.433 81.8099 115.433C57.2009 115.433 38 105.725 37.0641 95.2161"
     stroke="#6B1515"
     stroke-width="2.94603"
     id="path90" />
  <path
     d="M81.972 146.01L88.4407 132.499H75.5033L81.972 146.01Z"
     fill="#6B1515"
     id="path92" />
  <circle
     cx="75.6257"
     cy="37.4386"
     r="2.62069"
     fill="#6B1515"
     id="circle94" />
  <path
     d="M90.9754 37.4386C90.9754 38.8859 89.8021 40.0593 88.3547 40.0593C86.9073 40.0593 85.734 38.8859 85.734 37.4386C85.734 35.9912 86.9073 34.8179 88.3547 34.8179C89.8021 34.8179 90.9754 35.9912 90.9754 37.4386Z"
     fill="#6B1515"
     id="path96" />
  <ellipse
     cx="69.074"
     cy="45.3006"
     rx="3.93103"
     ry="2.62069"
     fill="#ED354F"
     id="ellipse98" />
  <ellipse
     cx="94.9065"
     cy="45.3006"
     rx="3.93103"
     ry="2.62069"
     fill="#ED354F"
     id="ellipse100" />
  <circle
     cx="68.3252"
     cy="3.55678"
     r="3.18227"
     fill="#6B1515"
     id="circle102" />
  <circle
     cx="96.4041"
     cy="3.55678"
     r="3.18227"
     fill="#6B1515"
     id="circle104" />
  <line
     x1="69.519"
     y1="5.78561"
     x2="74.386"
     y2="17.3915"
     stroke="#6B1515"
     stroke-width="2.99507"
     id="line106" />
  <line
     x1="95.3185"
     y1="5.89372"
     x2="89.7027"
     y2="17.4996"
     stroke="#6B1515"
     stroke-width="2.99507"
     id="line108" />
  <path
     d="M78.2463 43.0542C78.2463 45.4877 79.9358 47.5468 81.99 47.5468C83.9543 47.5468 85.5468 45.4877 85.5468 43.0542"
     stroke="#6B1515"
     stroke-width="1.87192"
     id="path110" />
  <defs
     id="defs231">
    <filter
       id="filter0_f_26_1437"
       x="12.3546"
       y="22.4632"
       width="82.7389"
       height="73.0049"
       filterUnits="userSpaceOnUse"
       color-interpolation-filters="sRGB">
      <feFlood
         flood-opacity="0"
         result="BackgroundImageFix"
         id="feFlood112" />
      <feBlend
         mode="normal"
         in="SourceGraphic"
         in2="BackgroundImageFix"
         result="shape"
         id="feBlend114" />
      <feGaussianBlur
         stdDeviation="3.36946"
         result="effect1_foregroundBlur_26_1437"
         id="feGaussianBlur116" />
    </filter>
    <filter
       id="filter1_f_26_1437"
       x="106.325"
       y="22.4632"
       width="82.7388"
       height="73.0049"
       filterUnits="userSpaceOnUse"
       color-interpolation-filters="sRGB">
      <feFlood
         flood-opacity="0"
         result="BackgroundImageFix"
         id="feFlood119" />
      <feBlend
         mode="normal"
         in="SourceGraphic"
         in2="BackgroundImageFix"
         result="shape"
         id="feBlend121" />
      <feGaussianBlur
         stdDeviation="3.36946"
         result="effect1_foregroundBlur_26_1437"
         id="feGaussianBlur123" />
    </filter>
    <filter
       id="filter2_f_26_1437"
       x="47.1723"
       y="39.6849"
       width="107.448"
       height="107.074"
       filterUnits="userSpaceOnUse"
       color-interpolation-filters="sRGB">
      <feFlood
         flood-opacity="0"
         result="BackgroundImageFix"
         id="feFlood126" />
      <feBlend
         mode="normal"
         in="SourceGraphic"
         in2="BackgroundImageFix"
         result="shape"
         id="feBlend128" />
      <feGaussianBlur
         stdDeviation="3.36946"
         result="effect1_foregroundBlur_26_1437"
         id="feGaussianBlur130" />
    </filter>
    <filter
       id="filter3_f_26_1437"
       x="65.8916"
       y="15.35"
       width="70.3842"
       height="62.1478"
       filterUnits="userSpaceOnUse"
       color-interpolation-filters="sRGB">
      <feFlood
         flood-opacity="0"
         result="BackgroundImageFix"
         id="feFlood133" />
      <feBlend
         mode="normal"
         in="SourceGraphic"
         in2="BackgroundImageFix"
         result="shape"
         id="feBlend135" />
      <feGaussianBlur
         stdDeviation="3.36946"
         result="effect1_foregroundBlur_26_1437"
         id="feGaussianBlur137" />
    </filter>
    <filter
       id="filter4_f_26_1437"
       x="47.5467"
       y="79.744"
       width="107.058"
       height="35.5665"
       filterUnits="userSpaceOnUse"
       color-interpolation-filters="sRGB">
      <feFlood
         flood-opacity="0"
         result="BackgroundImageFix"
         id="feFlood140" />
      <feBlend
         mode="normal"
         in="SourceGraphic"
         in2="BackgroundImageFix"
         result="shape"
         id="feBlend142" />
      <feGaussianBlur
         stdDeviation="3.36946"
         result="effect1_foregroundBlur_26_1437"
         id="feGaussianBlur144" />
    </filter>
    <filter
       id="filter5_f_26_1437"
       x="52.3811"
       y="65.8917"
       width="97.5905"
       height="33.5401"
       filterUnits="userSpaceOnUse"
       color-interpolation-filters="sRGB">
      <feFlood
         flood-opacity="0"
         result="BackgroundImageFix"
         id="feFlood147" />
      <feBlend
         mode="normal"
         in="SourceGraphic"
         in2="BackgroundImageFix"
         result="shape"
         id="feBlend149" />
      <feGaussianBlur
         stdDeviation="3.36946"
         result="effect1_foregroundBlur_26_1437"
         id="feGaussianBlur151" />
    </filter>
    <filter
       id="filter6_f_26_1437"
       x="47.9515"
       y="94.711"
       width="105.675"
       height="35.2981"
       filterUnits="userSpaceOnUse"
       color-interpolation-filters="sRGB">
      <feFlood
         flood-opacity="0"
         result="BackgroundImageFix"
         id="feFlood154" />
      <feBlend
         mode="normal"
         in="SourceGraphic"
         in2="BackgroundImageFix"
         result="shape"
         id="feBlend156" />
      <feGaussianBlur
         stdDeviation="3.36946"
         result="effect1_foregroundBlur_26_1437"
         id="feGaussianBlur158" />
    </filter>
    <filter
       id="filter7_f_26_1437"
       x="87.8577"
       y="132.125"
       width="26.4153"
       height="26.9889"
       filterUnits="userSpaceOnUse"
       color-interpolation-filters="sRGB">
      <feFlood
         flood-opacity="0"
         result="BackgroundImageFix"
         id="feFlood161" />
      <feBlend
         mode="normal"
         in="SourceGraphic"
         in2="BackgroundImageFix"
         result="shape"
         id="feBlend163" />
      <feGaussianBlur
         stdDeviation="3.36947"
         result="effect1_foregroundBlur_26_1437"
         id="feGaussianBlur165" />
    </filter>
    <filter
       id="filter8_f_26_1437"
       x="85.3596"
       y="34.4435"
       width="18.7192"
       height="18.7193"
       filterUnits="userSpaceOnUse"
       color-interpolation-filters="sRGB">
      <feFlood
         flood-opacity="0"
         result="BackgroundImageFix"
         id="feFlood168" />
      <feBlend
         mode="normal"
         in="SourceGraphic"
         in2="BackgroundImageFix"
         result="shape"
         id="feBlend170" />
      <feGaussianBlur
         stdDeviation="3.36946"
         result="effect1_foregroundBlur_26_1437"
         id="feGaussianBlur172" />
    </filter>
    <filter
       id="filter9_f_26_1437"
       x="98.0886"
       y="34.4435"
       width="18.7192"
       height="18.7193"
       filterUnits="userSpaceOnUse"
       color-interpolation-filters="sRGB">
      <feFlood
         flood-opacity="0"
         result="BackgroundImageFix"
         id="feFlood175" />
      <feBlend
         mode="normal"
         in="SourceGraphic"
         in2="BackgroundImageFix"
         result="shape"
         id="feBlend177" />
      <feGaussianBlur
         stdDeviation="3.36946"
         result="effect1_foregroundBlur_26_1437"
         id="feGaussianBlur179" />
    </filter>
    <filter
       id="filter10_f_26_1437"
       x="77.4975"
       y="42.3055"
       width="21.3399"
       height="18.7193"
       filterUnits="userSpaceOnUse"
       color-interpolation-filters="sRGB">
      <feFlood
         flood-opacity="0"
         result="BackgroundImageFix"
         id="feFlood182" />
      <feBlend
         mode="normal"
         in="SourceGraphic"
         in2="BackgroundImageFix"
         result="shape"
         id="feBlend184" />
      <feGaussianBlur
         stdDeviation="3.36946"
         result="effect1_foregroundBlur_26_1437"
         id="feGaussianBlur186" />
    </filter>
    <filter
       id="filter11_f_26_1437"
       x="103.33"
       y="42.3055"
       width="21.3399"
       height="18.7193"
       filterUnits="userSpaceOnUse"
       color-interpolation-filters="sRGB">
      <feFlood
         flood-opacity="0"
         result="BackgroundImageFix"
         id="feFlood189" />
      <feBlend
         mode="normal"
         in="SourceGraphic"
         in2="BackgroundImageFix"
         result="shape"
         id="feBlend191" />
      <feGaussianBlur
         stdDeviation="3.36946"
         result="effect1_foregroundBlur_26_1437"
         id="feGaussianBlur193" />
    </filter>
    <filter
       id="filter12_f_26_1437"
       x="77.4975"
       y="9.77516e-05"
       width="19.8423"
       height="19.8423"
       filterUnits="userSpaceOnUse"
       color-interpolation-filters="sRGB">
      <feFlood
         flood-opacity="0"
         result="BackgroundImageFix"
         id="feFlood196" />
      <feBlend
         mode="normal"
         in="SourceGraphic"
         in2="BackgroundImageFix"
         result="shape"
         id="feBlend198" />
      <feGaussianBlur
         stdDeviation="3.36946"
         result="effect1_foregroundBlur_26_1437"
         id="feGaussianBlur200" />
    </filter>
    <filter
       id="filter13_f_26_1437"
       x="105.576"
       y="9.77516e-05"
       width="19.8423"
       height="19.8423"
       filterUnits="userSpaceOnUse"
       color-interpolation-filters="sRGB">
      <feFlood
         flood-opacity="0"
         result="BackgroundImageFix"
         id="feFlood203" />
      <feBlend
         mode="normal"
         in="SourceGraphic"
         in2="BackgroundImageFix"
         result="shape"
         id="feBlend205" />
      <feGaussianBlur
         stdDeviation="3.36946"
         result="effect1_foregroundBlur_26_1437"
         id="feGaussianBlur207" />
    </filter>
    <filter
       id="filter14_f_26_1437"
       x="80.4925"
       y="4.83213"
       width="21.1069"
       height="26.242"
       filterUnits="userSpaceOnUse"
       color-interpolation-filters="sRGB">
      <feFlood
         flood-opacity="0"
         result="BackgroundImageFix"
         id="feFlood210" />
      <feBlend
         mode="normal"
         in="SourceGraphic"
         in2="BackgroundImageFix"
         result="shape"
         id="feBlend212" />
      <feGaussianBlur
         stdDeviation="3.36946"
         result="effect1_foregroundBlur_26_1437"
         id="feGaussianBlur214" />
    </filter>
    <filter
       id="filter15_f_26_1437"
       x="100.709"
       y="4.86704"
       width="21.7896"
       height="26.3882"
       filterUnits="userSpaceOnUse"
       color-interpolation-filters="sRGB">
      <feFlood
         flood-opacity="0"
         result="BackgroundImageFix"
         id="feFlood217" />
      <feBlend
         mode="normal"
         in="SourceGraphic"
         in2="BackgroundImageFix"
         result="shape"
         id="feBlend219" />
      <feGaussianBlur
         stdDeviation="3.36946"
         result="effect1_foregroundBlur_26_1437"
         id="feGaussianBlur221" />
    </filter>
    <filter
       id="filter16_f_26_1437"
       x="89.665"
       y="42.68"
       width="22.6502"
       height="18.9063"
       filterUnits="userSpaceOnUse"
       color-interpolation-filters="sRGB">
      <feFlood
         flood-opacity="0"
         result="BackgroundImageFix"
         id="feFlood224" />
      <feBlend
         mode="normal"
         in="SourceGraphic"
         in2="BackgroundImageFix"
         result="shape"
         id="feBlend226" />
      <feGaussianBlur
         stdDeviation="3.36946"
         result="effect1_foregroundBlur_26_1437"
         id="feGaussianBlur228" />
    </filter>
  </defs>
</svg>
