<svg width="229" height="200" viewBox="0 0 229 200" fill="none" xmlns="http://www.w3.org/2000/svg">
<g filter="url(#filter0_f_26_1562)">
<path d="M86.7242 88.7291C105.85 88.7291 121.355 75.4036 121.355 58.9656C121.355 42.5277 105.85 29.2021 86.7242 29.2021C67.5984 29.2021 52.0938 42.5277 52.0938 58.9656C52.0938 75.4036 67.5984 88.7291 86.7242 88.7291Z" fill="black" fill-opacity="0.25"/>
<path d="M86.7246 30.6991C105.244 30.6992 119.857 43.5597 119.857 58.9657C119.857 74.3717 105.244 87.2312 86.7246 87.2313C68.205 87.2313 53.5909 74.3717 53.5908 58.9657C53.5908 43.5596 68.2049 30.6991 86.7246 30.6991Z" stroke="black" stroke-opacity="0.25" stroke-width="2.99507"/>
</g>
<g filter="url(#filter1_f_26_1562)">
<path d="M180.695 88.7291C199.821 88.7291 215.325 75.4036 215.325 58.9656C215.325 42.5277 199.821 29.2021 180.695 29.2021C161.569 29.2021 146.064 42.5277 146.064 58.9656C146.064 75.4036 161.569 88.7291 180.695 88.7291Z" fill="black" fill-opacity="0.25"/>
<path d="M180.695 30.6991C199.215 30.6992 213.828 43.5597 213.828 58.9657C213.828 74.3717 199.215 87.2312 180.695 87.2313C162.175 87.2313 147.561 74.3717 147.561 58.9657C147.561 43.5596 162.175 30.6991 180.695 30.6991Z" stroke="black" stroke-opacity="0.25" stroke-width="2.99507"/>
</g>
<g filter="url(#filter2_f_26_1562)">
<path d="M180.882 93.2217C180.882 119.068 159.846 140.02 133.897 140.02C107.947 140.02 86.9114 119.068 86.9114 93.2217C86.9114 67.3759 107.947 46.4237 133.897 46.4237C159.846 46.4237 180.882 67.3759 180.882 93.2217Z" fill="black" fill-opacity="0.25"/>
<path d="M133.897 47.9208C159.024 47.9208 179.384 68.2085 179.384 93.2216C179.384 118.235 159.024 138.522 133.897 138.522C108.769 138.522 88.4084 118.235 88.4084 93.2216C88.4085 68.2085 108.769 47.9208 133.897 47.9208Z" stroke="black" stroke-opacity="0.25" stroke-width="2.99507"/>
</g>
<g filter="url(#filter3_f_26_1562)">
<path d="M134.084 70.7586C149.798 70.7586 162.537 59.8635 162.537 46.4236C162.537 32.9838 149.798 22.0886 134.084 22.0886C118.37 22.0886 105.631 32.9838 105.631 46.4236C105.631 59.8635 118.37 70.7586 134.084 70.7586Z" fill="black" fill-opacity="0.25"/>
<path d="M134.084 23.5857C149.199 23.5857 161.04 34.0219 161.04 46.4236C161.04 58.8253 149.199 69.2615 134.084 69.2615C118.968 69.2614 107.128 58.8253 107.128 46.4236C107.128 34.0219 118.968 23.5857 134.084 23.5857Z" stroke="black" stroke-opacity="0.25" stroke-width="2.99507"/>
</g>
<g filter="url(#filter4_f_26_1562)">
<path d="M179.37 87.0014C178.765 98.1339 158.721 107.074 134.084 107.074C109.065 107.074 88.7832 97.855 88.7832 86.4828" stroke="black" stroke-opacity="0.25" stroke-width="2.99507"/>
</g>
<g filter="url(#filter5_f_26_1562)">
<path d="M174.892 73.348C174.349 83.332 156.373 91.3497 134.277 91.3497C111.84 91.3497 93.4631 82.8294 93.4631 72.6305" stroke="black" stroke-opacity="0.25" stroke-width="2.68608"/>
</g>
<g filter="url(#filter6_f_26_1562)">
<path d="M178.448 102.581C176.202 112.906 158.137 121.797 133.904 121.797C109.294 121.797 90.0937 112.09 89.1577 101.58" stroke="black" stroke-opacity="0.25" stroke-width="2.94603"/>
</g>
<g filter="url(#filter7_f_26_1562)">
<path d="M134.066 152.374L140.534 138.864H127.597L134.066 152.374Z" fill="black" fill-opacity="0.25"/>
</g>
<g filter="url(#filter8_f_26_1562)">
<path d="M127.719 46.4236C129.166 46.4236 130.34 45.2503 130.34 43.8029C130.34 42.3556 129.166 41.1823 127.719 41.1823C126.272 41.1823 125.098 42.3556 125.098 43.8029C125.098 45.2503 126.272 46.4236 127.719 46.4236Z" fill="black" fill-opacity="0.25"/>
</g>
<g filter="url(#filter9_f_26_1562)">
<path d="M143.069 43.8028C143.069 45.2502 141.896 46.4235 140.448 46.4235C139.001 46.4235 137.828 45.2502 137.828 43.8028C137.828 42.3555 139.001 41.1823 140.448 41.1823C141.896 41.1823 143.069 42.3555 143.069 43.8028Z" fill="black" fill-opacity="0.25"/>
</g>
<g filter="url(#filter10_f_26_1562)">
<path d="M121.168 54.2857C123.339 54.2857 125.099 53.1124 125.099 51.665C125.099 50.2176 123.339 49.0443 121.168 49.0443C118.997 49.0443 117.237 50.2176 117.237 51.665C117.237 53.1124 118.997 54.2857 121.168 54.2857Z" fill="black" fill-opacity="0.25"/>
</g>
<g filter="url(#filter11_f_26_1562)">
<path d="M147 54.2857C149.171 54.2857 150.931 53.1124 150.931 51.665C150.931 50.2176 149.171 49.0443 147 49.0443C144.829 49.0443 143.069 50.2176 143.069 51.665C143.069 53.1124 144.829 54.2857 147 54.2857Z" fill="black" fill-opacity="0.25"/>
</g>
<g filter="url(#filter12_f_26_1562)">
<path d="M120.419 13.1034C122.177 13.1034 123.601 11.6787 123.601 9.92116C123.601 8.16364 122.177 6.73889 120.419 6.73889C118.662 6.73889 117.237 8.16364 117.237 9.92116C117.237 11.6787 118.662 13.1034 120.419 13.1034Z" fill="black" fill-opacity="0.25"/>
</g>
<g filter="url(#filter13_f_26_1562)">
<path d="M148.498 13.1034C150.255 13.1034 151.68 11.6787 151.68 9.92116C151.68 8.16364 150.255 6.73889 148.498 6.73889C146.74 6.73889 145.316 8.16364 145.316 9.92116C145.316 11.6787 146.74 13.1034 148.498 13.1034Z" fill="black" fill-opacity="0.25"/>
</g>
<g filter="url(#filter14_f_26_1562)">
<path d="M121.613 12.15L126.48 23.7559" stroke="black" stroke-opacity="0.25" stroke-width="2.99507"/>
</g>
<g filter="url(#filter15_f_26_1562)">
<path d="M147.412 12.2582L141.796 23.8641" stroke="black" stroke-opacity="0.25" stroke-width="2.99507"/>
</g>
<g filter="url(#filter16_f_26_1562)">
<path d="M130.34 49.4187C130.34 51.8522 132.03 53.9113 134.084 53.9113C136.048 53.9113 137.641 51.8522 137.641 49.4187" stroke="black" stroke-opacity="0.25" stroke-width="1.87192"/>
</g>
<path d="M67.6309 24.3345C86.1504 24.3346 100.764 37.1951 100.764 52.6011C100.764 68.007 86.1504 80.8666 67.6309 80.8667C49.1112 80.8667 34.4971 68.0071 34.4971 52.6011C34.4971 37.195 49.1112 24.3345 67.6309 24.3345Z" fill="#CBF3FF" stroke="#44C2C1" stroke-width="2.99507"/>
<path d="M161.601 24.3345C180.121 24.3346 194.734 37.1951 194.734 52.6011C194.734 68.007 180.121 80.8666 161.601 80.8667C143.082 80.8667 128.468 68.0071 128.468 52.6011C128.468 37.195 143.082 24.3345 161.601 24.3345Z" fill="#CBF3FF" stroke="#44C2C1" stroke-width="2.99507"/>
<path d="M114.803 41.5562C139.931 41.5562 160.29 61.8439 160.291 86.8569C160.291 111.87 139.931 132.158 114.803 132.158C89.6754 132.158 69.3149 111.87 69.3149 86.8569C69.315 61.8439 89.6755 41.5562 114.803 41.5562Z" fill="#FDB934" stroke="#6B1515" stroke-width="2.99507"/>
<path d="M114.99 17.2212C130.106 17.2212 141.946 27.6574 141.946 40.0591C141.946 52.4608 130.106 62.897 114.99 62.897C99.8749 62.8969 88.0342 52.4608 88.0342 40.0591C88.0342 27.6574 99.8749 17.2212 114.99 17.2212Z" fill="#FFD687" stroke="#FDB934" stroke-width="2.99507"/>
<path d="M160.277 80.6369C159.671 91.7694 139.628 100.709 114.99 100.709C89.9714 100.709 69.6897 91.4905 69.6897 80.1183" stroke="#6B1515" stroke-width="2.99507"/>
<path d="M155.798 66.9835C155.255 76.9675 137.279 84.9852 115.184 84.9852C92.7462 84.9852 74.3696 76.4649 74.3696 66.266" stroke="#6B1515" stroke-width="2.68608"/>
<path d="M159.355 96.2168C157.109 106.542 139.044 115.433 114.81 115.433C90.201 115.433 71.0002 105.725 70.0642 95.2159" stroke="#6B1515" stroke-width="2.94603"/>
<path d="M114.972 146.01L121.441 132.499H108.503L114.972 146.01Z" fill="#6B1515"/>
<path d="M108.626 40.0591C110.073 40.0591 111.247 38.8858 111.247 37.4384C111.247 35.9911 110.073 34.8177 108.626 34.8177C107.179 34.8177 106.005 35.9911 106.005 37.4384C106.005 38.8858 107.179 40.0591 108.626 40.0591Z" fill="#6B1515"/>
<path d="M123.976 37.4384C123.976 38.8858 122.802 40.0592 121.355 40.0592C119.907 40.0592 118.734 38.8858 118.734 37.4384C118.734 35.9911 119.907 34.8177 121.355 34.8177C122.802 34.8177 123.976 35.9911 123.976 37.4384Z" fill="#6B1515"/>
<path d="M102.074 47.9212C104.245 47.9212 106.005 46.7479 106.005 45.3005C106.005 43.8531 104.245 42.6798 102.074 42.6798C99.903 42.6798 98.1431 43.8531 98.1431 45.3005C98.1431 46.7479 99.903 47.9212 102.074 47.9212Z" fill="#ED354F"/>
<path d="M127.906 47.9212C130.077 47.9212 131.837 46.7479 131.837 45.3005C131.837 43.8531 130.077 42.6798 127.906 42.6798C125.735 42.6798 123.975 43.8531 123.975 45.3005C123.975 46.7479 125.735 47.9212 127.906 47.9212Z" fill="#ED354F"/>
<path d="M101.325 6.73893C103.083 6.73893 104.507 5.31418 104.507 3.55666C104.507 1.79914 103.083 0.37439 101.325 0.37439C99.5676 0.37439 98.1428 1.79914 98.1428 3.55666C98.1428 5.31418 99.5676 6.73893 101.325 6.73893Z" fill="#6B1515"/>
<path d="M129.404 6.73893C131.161 6.73893 132.586 5.31418 132.586 3.55666C132.586 1.79914 131.161 0.37439 129.404 0.37439C127.646 0.37439 126.222 1.79914 126.222 3.55666C126.222 5.31418 127.646 6.73893 129.404 6.73893Z" fill="#6B1515"/>
<path d="M102.519 5.7854L107.386 17.3913" stroke="#6B1515" stroke-width="2.99507"/>
<path d="M128.318 5.89355L122.703 17.4995" stroke="#6B1515" stroke-width="2.99507"/>
<path d="M111.246 43.0542C111.246 45.4877 112.936 47.5468 114.99 47.5468C116.954 47.5468 118.547 45.4877 118.547 43.0542" stroke="#6B1515" stroke-width="1.87192"/>
<g filter="url(#filter17_d_26_1562)">
<path d="M30.1582 187.615L34.8477 171.413H38.3613L36.7207 175.378L32.1816 191.374H28.1484L23.582 175.378L21.9277 171.413H25.4824L30.1582 187.615ZM20.6289 171.413H24.252L23.7598 174.9L23.3633 191.374H19.6719C19.7266 190.992 19.7812 190.349 19.8359 189.447C19.8906 188.535 19.9499 187.469 20.0137 186.247C20.0775 185.026 20.1367 183.741 20.1914 182.392C20.2552 181.034 20.3099 179.708 20.3555 178.413C20.4102 177.119 20.4557 175.943 20.4922 174.886C20.5378 173.829 20.5697 172.986 20.5879 172.357C20.6152 171.728 20.6289 171.413 20.6289 171.413ZM40.5898 191.374H36.8984L36.5566 174.9L35.9414 171.413H39.6328C39.6784 172.899 39.7331 174.471 39.7969 176.13C39.8607 177.789 39.9245 179.434 39.9883 181.066C40.0612 182.697 40.1296 184.219 40.1934 185.632C40.2663 187.045 40.3346 188.257 40.3984 189.269C40.4714 190.272 40.5352 190.973 40.5898 191.374ZM45.252 177.429H49.2852C49.2852 178.113 49.2852 178.842 49.2852 179.617C49.2852 180.391 49.2852 181.143 49.2852 181.872C49.2852 182.592 49.2852 183.221 49.2852 183.759C49.2852 184.297 49.2852 184.671 49.2852 184.88C49.2852 185.464 49.2943 186.175 49.3125 187.013C49.3398 187.842 49.3717 188.654 49.4082 189.447C49.4538 190.24 49.5039 190.882 49.5586 191.374H45.457C45.457 190.718 45.457 189.948 45.457 189.064C45.457 188.18 45.457 187.3 45.457 186.425C45.457 185.541 45.457 184.775 45.457 184.128C45.457 182.798 45.4434 181.531 45.416 180.328C45.3978 179.115 45.3431 178.149 45.252 177.429ZM44.9785 172.439C44.9785 171.737 45.2018 171.163 45.6484 170.716C46.1042 170.27 46.6784 170.046 47.3711 170.046C48.0729 170.046 48.6471 170.27 49.0938 170.716C49.5404 171.163 49.7637 171.737 49.7637 172.439C49.7637 173.15 49.5404 173.729 49.0938 174.175C48.6471 174.613 48.0729 174.831 47.3711 174.831C46.6784 174.831 46.1042 174.613 45.6484 174.175C45.2018 173.729 44.9785 173.15 44.9785 172.439ZM71.8027 187.615L76.4922 171.413H80.0059L78.3652 175.378L73.8262 191.374H69.793L65.2266 175.378L63.5723 171.413H67.127L71.8027 187.615ZM62.2734 171.413H65.8965L65.4043 174.9L65.0078 191.374H61.3164C61.3711 190.992 61.4258 190.349 61.4805 189.447C61.5352 188.535 61.5944 187.469 61.6582 186.247C61.722 185.026 61.7812 183.741 61.8359 182.392C61.8997 181.034 61.9544 179.708 62 178.413C62.0547 177.119 62.1003 175.943 62.1367 174.886C62.1823 173.829 62.2142 172.986 62.2324 172.357C62.2598 171.728 62.2734 171.413 62.2734 171.413ZM82.2344 191.374H78.543L78.2012 174.9L77.5859 171.413H81.2773C81.3229 172.899 81.3776 174.471 81.4414 176.13C81.5052 177.789 81.569 179.434 81.6328 181.066C81.7057 182.697 81.7741 184.219 81.8379 185.632C81.9108 187.045 81.9792 188.257 82.043 189.269C82.1159 190.272 82.1797 190.973 82.2344 191.374ZM85.8711 184.443C85.8711 182.875 86.181 181.549 86.8008 180.464C87.4297 179.38 88.2637 178.559 89.3027 178.003C90.3418 177.438 91.4766 177.156 92.707 177.156C94.0013 177.156 95.1406 177.438 96.125 178.003C97.1094 178.559 97.8796 179.38 98.4355 180.464C98.9915 181.549 99.2695 182.875 99.2695 184.443C99.2695 186.01 98.9551 187.337 98.3262 188.421C97.7064 189.497 96.877 190.317 95.8379 190.882C94.7988 191.438 93.6641 191.716 92.4336 191.716C91.1484 191.716 90.0137 191.438 89.0293 190.882C88.0449 190.317 87.2702 189.497 86.7051 188.421C86.1491 187.337 85.8711 186.01 85.8711 184.443ZM89.6992 184.443C89.6992 185.746 89.9408 186.772 90.4238 187.519C90.916 188.266 91.6315 188.64 92.5703 188.64C93.4544 188.64 94.1517 188.266 94.6621 187.519C95.1816 186.772 95.4414 185.746 95.4414 184.443C95.4414 183.13 95.1953 182.1 94.7031 181.353C94.2201 180.606 93.5091 180.232 92.5703 180.232C91.6862 180.232 90.9844 180.606 90.4648 181.353C89.9544 182.1 89.6992 183.13 89.6992 184.443ZM115.812 191.374H111.984C111.984 191.374 111.984 191.178 111.984 190.786C111.984 190.395 111.984 189.889 111.984 189.269C111.984 188.649 111.984 187.993 111.984 187.3C111.984 186.607 111.984 185.956 111.984 185.345C111.984 184.725 111.984 184.229 111.984 183.855C111.984 182.597 111.811 181.727 111.465 181.244C111.128 180.751 110.594 180.505 109.865 180.505C109.346 180.505 108.844 180.656 108.361 180.956C107.878 181.248 107.454 181.617 107.09 182.064C106.734 182.51 106.475 182.971 106.311 183.445V191.374H102.482C102.482 191.374 102.482 191.174 102.482 190.773C102.482 190.363 102.482 189.834 102.482 189.187C102.482 188.54 102.482 187.838 102.482 187.081C102.482 186.316 102.482 185.573 102.482 184.853C102.482 184.124 102.482 183.495 102.482 182.966C102.482 181.626 102.405 180.487 102.25 179.548C102.104 178.609 101.954 177.903 101.799 177.429H105.559C105.632 177.611 105.7 177.862 105.764 178.181C105.837 178.5 105.905 178.824 105.969 179.152C106.033 179.48 106.078 179.749 106.105 179.958C106.971 178.965 107.824 178.249 108.662 177.812C109.501 177.374 110.403 177.156 111.369 177.156C112.755 177.156 113.839 177.634 114.623 178.591C115.416 179.539 115.812 180.952 115.812 182.829C115.812 183.285 115.812 183.869 115.812 184.579C115.812 185.281 115.812 186.024 115.812 186.808C115.812 187.592 115.812 188.33 115.812 189.023C115.812 189.716 115.812 190.281 115.812 190.718C115.812 191.156 115.812 191.374 115.812 191.374ZM128.746 187.533V190.595C128.099 191.005 127.475 191.292 126.873 191.456C126.271 191.63 125.725 191.716 125.232 191.716C124.376 191.716 123.592 191.602 122.881 191.374C122.17 191.137 121.6 190.727 121.172 190.144C120.753 189.551 120.543 188.731 120.543 187.683C120.543 185.286 120.543 182.893 120.543 180.505C120.543 178.108 120.543 175.716 120.543 173.328H124.371C124.371 175.278 124.371 177.233 124.371 179.193C124.371 181.143 124.371 183.098 124.371 185.058C124.371 186.088 124.43 186.854 124.549 187.355C124.667 187.856 124.854 188.184 125.109 188.339C125.365 188.485 125.697 188.558 126.107 188.558C126.764 188.558 127.643 188.216 128.746 187.533ZM128.541 180.369H117.945V177.634H128.541V180.369ZM143.457 185.222H132.957V182.761H139.971C139.971 181.804 139.761 181.111 139.342 180.683C138.932 180.245 138.321 180.027 137.51 180.027C136.525 180.027 135.792 180.369 135.309 181.052C134.835 181.727 134.598 182.866 134.598 184.47C134.598 185.919 134.889 186.977 135.473 187.642C136.056 188.307 136.913 188.64 138.043 188.64C138.936 188.64 139.811 188.535 140.668 188.326C141.534 188.116 142.391 187.76 143.238 187.259L143.525 190.349C142.541 190.85 141.589 191.201 140.668 191.402C139.757 191.611 138.768 191.716 137.701 191.716C136.498 191.716 135.377 191.447 134.338 190.91C133.299 190.372 132.46 189.574 131.822 188.517C131.193 187.46 130.879 186.156 130.879 184.607C130.879 183.094 131.152 181.781 131.699 180.669C132.255 179.557 133.044 178.696 134.064 178.085C135.085 177.466 136.298 177.156 137.701 177.156C138.85 177.156 139.793 177.356 140.531 177.757C141.279 178.149 141.862 178.678 142.281 179.343C142.71 180.009 143.01 180.756 143.184 181.585C143.357 182.406 143.443 183.244 143.443 184.101C143.443 184.229 143.443 184.415 143.443 184.661C143.452 184.908 143.457 185.094 143.457 185.222ZM157.197 178.249L156.664 181.462C156.154 181.198 155.507 180.915 154.723 180.615C153.948 180.314 153.087 180.163 152.139 180.163C151.337 180.163 150.781 180.3 150.471 180.574C150.17 180.847 150.02 181.12 150.02 181.394C150.02 181.613 150.079 181.8 150.197 181.954C150.325 182.109 150.58 182.255 150.963 182.392C151.355 182.52 151.952 182.665 152.754 182.829C153.702 183.012 154.568 183.272 155.352 183.609C156.145 183.937 156.773 184.379 157.238 184.935C157.712 185.491 157.949 186.202 157.949 187.068C157.949 187.943 157.685 188.731 157.156 189.433C156.628 190.135 155.912 190.691 155.01 191.101C154.117 191.511 153.114 191.716 152.002 191.716C150.781 191.716 149.655 191.561 148.625 191.251C147.595 190.932 146.784 190.563 146.191 190.144L146.943 186.794C147.618 187.35 148.438 187.797 149.404 188.134C150.38 188.471 151.268 188.64 152.07 188.64C152.717 188.64 153.242 188.517 153.643 188.271C154.053 188.016 154.258 187.729 154.258 187.41C154.258 187.009 154.048 186.658 153.629 186.357C153.21 186.047 152.348 185.751 151.045 185.468C149.751 185.186 148.762 184.848 148.078 184.456C147.404 184.064 146.943 183.622 146.697 183.13C146.451 182.638 146.328 182.105 146.328 181.531C146.328 181.193 146.419 180.783 146.602 180.3C146.784 179.808 147.094 179.325 147.531 178.851C147.978 178.368 148.584 177.967 149.35 177.648C150.124 177.32 151.1 177.156 152.275 177.156C153.387 177.156 154.354 177.274 155.174 177.511C155.994 177.739 156.669 177.985 157.197 178.249ZM171.361 178.249L170.828 181.462C170.318 181.198 169.671 180.915 168.887 180.615C168.112 180.314 167.251 180.163 166.303 180.163C165.501 180.163 164.945 180.3 164.635 180.574C164.334 180.847 164.184 181.12 164.184 181.394C164.184 181.613 164.243 181.8 164.361 181.954C164.489 182.109 164.744 182.255 165.127 182.392C165.519 182.52 166.116 182.665 166.918 182.829C167.866 183.012 168.732 183.272 169.516 183.609C170.309 183.937 170.938 184.379 171.402 184.935C171.876 185.491 172.113 186.202 172.113 187.068C172.113 187.943 171.849 188.731 171.32 189.433C170.792 190.135 170.076 190.691 169.174 191.101C168.281 191.511 167.278 191.716 166.166 191.716C164.945 191.716 163.819 191.561 162.789 191.251C161.759 190.932 160.948 190.563 160.355 190.144L161.107 186.794C161.782 187.35 162.602 187.797 163.568 188.134C164.544 188.471 165.432 188.64 166.234 188.64C166.882 188.64 167.406 188.517 167.807 188.271C168.217 188.016 168.422 187.729 168.422 187.41C168.422 187.009 168.212 186.658 167.793 186.357C167.374 186.047 166.512 185.751 165.209 185.468C163.915 185.186 162.926 184.848 162.242 184.456C161.568 184.064 161.107 183.622 160.861 183.13C160.615 182.638 160.492 182.105 160.492 181.531C160.492 181.193 160.583 180.783 160.766 180.3C160.948 179.808 161.258 179.325 161.695 178.851C162.142 178.368 162.748 177.967 163.514 177.648C164.288 177.32 165.264 177.156 166.439 177.156C167.551 177.156 168.518 177.274 169.338 177.511C170.158 177.739 170.833 177.985 171.361 178.249ZM174.383 184.443C174.383 182.875 174.693 181.549 175.312 180.464C175.941 179.38 176.775 178.559 177.814 178.003C178.854 177.438 179.988 177.156 181.219 177.156C182.513 177.156 183.652 177.438 184.637 178.003C185.621 178.559 186.391 179.38 186.947 180.464C187.503 181.549 187.781 182.875 187.781 184.443C187.781 186.01 187.467 187.337 186.838 188.421C186.218 189.497 185.389 190.317 184.35 190.882C183.311 191.438 182.176 191.716 180.945 191.716C179.66 191.716 178.525 191.438 177.541 190.882C176.557 190.317 175.782 189.497 175.217 188.421C174.661 187.337 174.383 186.01 174.383 184.443ZM178.211 184.443C178.211 185.746 178.452 186.772 178.936 187.519C179.428 188.266 180.143 188.64 181.082 188.64C181.966 188.64 182.663 188.266 183.174 187.519C183.693 186.772 183.953 185.746 183.953 184.443C183.953 183.13 183.707 182.1 183.215 181.353C182.732 180.606 182.021 180.232 181.082 180.232C180.198 180.232 179.496 180.606 178.977 181.353C178.466 182.1 178.211 183.13 178.211 184.443ZM194.822 191.374H190.994V182.966C190.994 181.626 190.917 180.487 190.762 179.548C190.616 178.609 190.465 177.903 190.311 177.429H194.07C194.143 177.62 194.212 177.885 194.275 178.222C194.348 178.559 194.417 178.901 194.48 179.247C194.544 179.594 194.59 179.876 194.617 180.095C195.283 179.147 196.012 178.423 196.805 177.921C197.598 177.411 198.304 177.156 198.924 177.156C199.781 177.156 200.469 177.393 200.988 177.867C201.508 178.331 201.886 178.951 202.123 179.726C202.36 180.501 202.479 181.353 202.479 182.283L199.43 182.761C199.384 182.141 199.234 181.645 198.979 181.271C198.723 180.888 198.304 180.697 197.721 180.697C197.42 180.697 197.074 180.865 196.682 181.203C196.29 181.54 195.921 181.973 195.574 182.501C195.237 183.021 194.986 183.563 194.822 184.128V191.374ZM204.885 177.429H208.918C208.918 178.113 208.918 178.842 208.918 179.617C208.918 180.391 208.918 181.143 208.918 181.872C208.918 182.592 208.918 183.221 208.918 183.759C208.918 184.297 208.918 184.671 208.918 184.88C208.918 185.464 208.927 186.175 208.945 187.013C208.973 187.842 209.005 188.654 209.041 189.447C209.087 190.24 209.137 190.882 209.191 191.374H205.09C205.09 190.718 205.09 189.948 205.09 189.064C205.09 188.18 205.09 187.3 205.09 186.425C205.09 185.541 205.09 184.775 205.09 184.128C205.09 182.798 205.076 181.531 205.049 180.328C205.031 179.115 204.976 178.149 204.885 177.429ZM204.611 172.439C204.611 171.737 204.835 171.163 205.281 170.716C205.737 170.27 206.311 170.046 207.004 170.046C207.706 170.046 208.28 170.27 208.727 170.716C209.173 171.163 209.396 171.737 209.396 172.439C209.396 173.15 209.173 173.729 208.727 174.175C208.28 174.613 207.706 174.831 207.004 174.831C206.311 174.831 205.737 174.613 205.281 174.175C204.835 173.729 204.611 173.15 204.611 172.439Z" fill="#37231C"/>
</g>
<defs>
<filter id="filter0_f_26_1562" x="45.3543" y="22.4626" width="82.7393" height="73.0054" filterUnits="userSpaceOnUse" color-interpolation-filters="sRGB">
<feFlood flood-opacity="0" result="BackgroundImageFix"/>
<feBlend mode="normal" in="SourceGraphic" in2="BackgroundImageFix" result="shape"/>
<feGaussianBlur stdDeviation="3.36946" result="effect1_foregroundBlur_26_1562"/>
</filter>
<filter id="filter1_f_26_1562" x="139.325" y="22.4626" width="82.74" height="73.0054" filterUnits="userSpaceOnUse" color-interpolation-filters="sRGB">
<feFlood flood-opacity="0" result="BackgroundImageFix"/>
<feBlend mode="normal" in="SourceGraphic" in2="BackgroundImageFix" result="shape"/>
<feGaussianBlur stdDeviation="3.36946" result="effect1_foregroundBlur_26_1562"/>
</filter>
<filter id="filter2_f_26_1562" x="80.172" y="39.6843" width="107.449" height="107.075" filterUnits="userSpaceOnUse" color-interpolation-filters="sRGB">
<feFlood flood-opacity="0" result="BackgroundImageFix"/>
<feBlend mode="normal" in="SourceGraphic" in2="BackgroundImageFix" result="shape"/>
<feGaussianBlur stdDeviation="3.36946" result="effect1_foregroundBlur_26_1562"/>
</filter>
<filter id="filter3_f_26_1562" x="98.8917" y="15.3492" width="70.3848" height="62.1487" filterUnits="userSpaceOnUse" color-interpolation-filters="sRGB">
<feFlood flood-opacity="0" result="BackgroundImageFix"/>
<feBlend mode="normal" in="SourceGraphic" in2="BackgroundImageFix" result="shape"/>
<feGaussianBlur stdDeviation="3.36946" result="effect1_foregroundBlur_26_1562"/>
</filter>
<filter id="filter4_f_26_1562" x="80.5467" y="79.7439" width="107.057" height="35.5666" filterUnits="userSpaceOnUse" color-interpolation-filters="sRGB">
<feFlood flood-opacity="0" result="BackgroundImageFix"/>
<feBlend mode="normal" in="SourceGraphic" in2="BackgroundImageFix" result="shape"/>
<feGaussianBlur stdDeviation="3.36946" result="effect1_foregroundBlur_26_1562"/>
</filter>
<filter id="filter5_f_26_1562" x="85.3812" y="65.8916" width="97.5909" height="33.5401" filterUnits="userSpaceOnUse" color-interpolation-filters="sRGB">
<feFlood flood-opacity="0" result="BackgroundImageFix"/>
<feBlend mode="normal" in="SourceGraphic" in2="BackgroundImageFix" result="shape"/>
<feGaussianBlur stdDeviation="3.36946" result="effect1_foregroundBlur_26_1562"/>
</filter>
<filter id="filter6_f_26_1562" x="80.9515" y="94.7104" width="105.675" height="35.2985" filterUnits="userSpaceOnUse" color-interpolation-filters="sRGB">
<feFlood flood-opacity="0" result="BackgroundImageFix"/>
<feBlend mode="normal" in="SourceGraphic" in2="BackgroundImageFix" result="shape"/>
<feGaussianBlur stdDeviation="3.36946" result="effect1_foregroundBlur_26_1562"/>
</filter>
<filter id="filter7_f_26_1562" x="120.858" y="132.125" width="26.4149" height="26.9879" filterUnits="userSpaceOnUse" color-interpolation-filters="sRGB">
<feFlood flood-opacity="0" result="BackgroundImageFix"/>
<feBlend mode="normal" in="SourceGraphic" in2="BackgroundImageFix" result="shape"/>
<feGaussianBlur stdDeviation="3.36947" result="effect1_foregroundBlur_26_1562"/>
</filter>
<filter id="filter8_f_26_1562" x="118.359" y="34.4433" width="18.7193" height="18.7192" filterUnits="userSpaceOnUse" color-interpolation-filters="sRGB">
<feFlood flood-opacity="0" result="BackgroundImageFix"/>
<feBlend mode="normal" in="SourceGraphic" in2="BackgroundImageFix" result="shape"/>
<feGaussianBlur stdDeviation="3.36946" result="effect1_foregroundBlur_26_1562"/>
</filter>
<filter id="filter9_f_26_1562" x="131.089" y="34.4433" width="18.7188" height="18.7192" filterUnits="userSpaceOnUse" color-interpolation-filters="sRGB">
<feFlood flood-opacity="0" result="BackgroundImageFix"/>
<feBlend mode="normal" in="SourceGraphic" in2="BackgroundImageFix" result="shape"/>
<feGaussianBlur stdDeviation="3.36946" result="effect1_foregroundBlur_26_1562"/>
</filter>
<filter id="filter10_f_26_1562" x="110.498" y="42.3054" width="21.3399" height="18.7192" filterUnits="userSpaceOnUse" color-interpolation-filters="sRGB">
<feFlood flood-opacity="0" result="BackgroundImageFix"/>
<feBlend mode="normal" in="SourceGraphic" in2="BackgroundImageFix" result="shape"/>
<feGaussianBlur stdDeviation="3.36946" result="effect1_foregroundBlur_26_1562"/>
</filter>
<filter id="filter11_f_26_1562" x="136.33" y="42.3054" width="21.3399" height="18.7192" filterUnits="userSpaceOnUse" color-interpolation-filters="sRGB">
<feFlood flood-opacity="0" result="BackgroundImageFix"/>
<feBlend mode="normal" in="SourceGraphic" in2="BackgroundImageFix" result="shape"/>
<feGaussianBlur stdDeviation="3.36946" result="effect1_foregroundBlur_26_1562"/>
</filter>
<filter id="filter12_f_26_1562" x="110.498" y="-2.86102e-05" width="19.8423" height="19.8423" filterUnits="userSpaceOnUse" color-interpolation-filters="sRGB">
<feFlood flood-opacity="0" result="BackgroundImageFix"/>
<feBlend mode="normal" in="SourceGraphic" in2="BackgroundImageFix" result="shape"/>
<feGaussianBlur stdDeviation="3.36946" result="effect1_foregroundBlur_26_1562"/>
</filter>
<filter id="filter13_f_26_1562" x="138.577" y="-2.86102e-05" width="19.8423" height="19.8423" filterUnits="userSpaceOnUse" color-interpolation-filters="sRGB">
<feFlood flood-opacity="0" result="BackgroundImageFix"/>
<feBlend mode="normal" in="SourceGraphic" in2="BackgroundImageFix" result="shape"/>
<feGaussianBlur stdDeviation="3.36946" result="effect1_foregroundBlur_26_1562"/>
</filter>
<filter id="filter14_f_26_1562" x="113.493" y="4.832" width="21.107" height="26.242" filterUnits="userSpaceOnUse" color-interpolation-filters="sRGB">
<feFlood flood-opacity="0" result="BackgroundImageFix"/>
<feBlend mode="normal" in="SourceGraphic" in2="BackgroundImageFix" result="shape"/>
<feGaussianBlur stdDeviation="3.36946" result="effect1_foregroundBlur_26_1562"/>
</filter>
<filter id="filter15_f_26_1562" x="133.709" y="4.86691" width="21.7899" height="26.3884" filterUnits="userSpaceOnUse" color-interpolation-filters="sRGB">
<feFlood flood-opacity="0" result="BackgroundImageFix"/>
<feBlend mode="normal" in="SourceGraphic" in2="BackgroundImageFix" result="shape"/>
<feGaussianBlur stdDeviation="3.36946" result="effect1_foregroundBlur_26_1562"/>
</filter>
<filter id="filter16_f_26_1562" x="122.665" y="42.6798" width="22.6509" height="18.9064" filterUnits="userSpaceOnUse" color-interpolation-filters="sRGB">
<feFlood flood-opacity="0" result="BackgroundImageFix"/>
<feBlend mode="normal" in="SourceGraphic" in2="BackgroundImageFix" result="shape"/>
<feGaussianBlur stdDeviation="3.36946" result="effect1_foregroundBlur_26_1562"/>
</filter>
<filter id="filter17_d_26_1562" x="15.6719" y="170.046" width="197.724" height="29.67" filterUnits="userSpaceOnUse" color-interpolation-filters="sRGB">
<feFlood flood-opacity="0" result="BackgroundImageFix"/>
<feColorMatrix in="SourceAlpha" type="matrix" values="0 0 0 0 0 0 0 0 0 0 0 0 0 0 0 0 0 0 127 0" result="hardAlpha"/>
<feOffset dy="4"/>
<feGaussianBlur stdDeviation="2"/>
<feComposite in2="hardAlpha" operator="out"/>
<feColorMatrix type="matrix" values="0 0 0 0 0 0 0 0 0 0 0 0 0 0 0 0 0 0 0.25 0"/>
<feBlend mode="normal" in2="BackgroundImageFix" result="effect1_dropShadow_26_1562"/>
<feBlend mode="normal" in="SourceGraphic" in2="effect1_dropShadow_26_1562" result="shape"/>
</filter>
</defs>
</svg>
